<?xml version="1.0" encoding="utf-8"?>
<!-- Generated by IcoMoon.io -->
<svg version="1.1" xmlns="http://www.w3.org/2000/svg" xmlns:xlink="http://www.w3.org/1999/xlink" width="752" height="32" viewBox="0 0 752 32">
<svg id="icon-Ellipse1" width="45" height="32" viewBox="0 0 45 32" x="0" y="0">
<path opacity="0.3" fill="#000" d="M44.604 13.692c1.327 10.348-11.892 17.635-18.362 16.982s-8.039 0.589-12.444 1.088c-4.405 0.499-8.267 0.564-11.914-4.617s-4.245-32.080 21.041-26.322c10.38-0.164 20.352 2.521 21.678 12.869z"></path>
</svg>
<svg id="icon-Ellipse2" width="32" height="32" viewBox="0 0 32 32" x="96" y="0">
<path d="M31.957 14.822c0.882 9.497-10.939 17.658-16.358 17.111s-7.432-2.028-9.089-4.978 1.702-5.357-3-8.622c-4.702-3.266-7.681-17.716 12.089-18.289 8.693-0.137 15.527 5.835 16.358 14.778z"></path>
</svg>
</svg>
